<?xml version="1.0" encoding="UTF-8"?>
<!--Generator: Apple Native CoreSVG 232.5-->
<!DOCTYPE svg
PUBLIC "-//W3C//DTD SVG 1.1//EN"
       "http://www.w3.org/Graphics/SVG/1.1/DTD/svg11.dtd">
<svg version="1.1" xmlns="http://www.w3.org/2000/svg" xmlns:xlink="http://www.w3.org/1999/xlink" width="96.8115" height="123.267">
 <g>
  <rect height="123.267" opacity="0" width="96.8115" x="0" y="0"/>
  <path d="M48.3838 24.2139C55.1074 24.2139 60.4688 18.8086 60.4688 12.1289C60.4688 5.40527 55.1074 0 48.3838 0C41.6602 0 36.2549 5.40527 36.2549 12.1289C36.2549 18.8086 41.6602 24.2139 48.3838 24.2139ZM48.3838 76.6846C50.7568 76.6846 51.8115 78.2227 52.998 82.2656C54.7119 87.8467 60.6885 111.27 62.4023 118.169C63.1934 121.597 64.9951 123.047 67.6318 123.047C71.1475 123.047 73.2568 119.839 72.334 116.367C71.8945 114.873 63.7207 81.0352 62.71 74.0479C61.6553 66.9287 61.5674 51.3281 61.5674 46.5381C61.6113 43.1104 63.1055 41.001 65.9619 40.3857C68.5986 39.8145 89.8682 37.4414 92.7246 36.6064C95.1855 35.9033 96.8115 33.9258 96.8115 31.377C96.8115 28.2129 94.4385 26.2793 92.1094 26.2793C91.0986 26.2793 90.1758 26.499 89.0332 26.7627C80.5518 28.3008 61.6992 30.2783 48.3838 30.2783C35.1123 30.2783 16.1719 28.3887 7.73438 26.7627C6.63574 26.499 5.66895 26.2793 4.70215 26.2793C2.28516 26.2793 0 28.2129 0 31.377C0 33.9258 1.53809 36.0791 4.04297 36.6064C7.03125 37.2217 28.1689 39.9023 30.8057 40.3857C33.6621 40.9131 35.2002 43.1104 35.2881 46.5381C35.332 51.3281 35.1123 66.9287 34.0576 74.0479C33.0029 81.0352 24.8291 114.873 24.4336 116.367C23.4668 119.839 25.6201 123.047 29.1357 123.047C31.7285 123.047 33.4863 121.597 34.4092 118.169C36.2988 111.313 42.0557 87.9346 43.8574 82.2656C45.0879 78.3105 46.0547 76.6846 48.3838 76.6846Z" fill="#0a84ff"/>
 </g>
</svg>
