<?xml version="1.0" encoding="UTF-8"?>
<!--Generator: Apple Native CoreSVG 232.5-->
<!DOCTYPE svg
PUBLIC "-//W3C//DTD SVG 1.1//EN"
       "http://www.w3.org/Graphics/SVG/1.1/DTD/svg11.dtd">
<svg version="1.1" xmlns="http://www.w3.org/2000/svg" xmlns:xlink="http://www.w3.org/1999/xlink" width="76.333" height="138.472">
 <g>
  <rect height="138.472" opacity="0" width="76.333" x="0" y="0"/>
  <path d="M18.9844 130.518C23.5986 130.518 26.5869 127.881 26.499 123.354L25.4004 59.9414C25.3564 57.876 26.1475 56.4697 27.9053 55.6787C35.332 52.4268 38.3203 48.9111 37.9248 39.1113L36.3867 4.61426C36.2549 2.24121 34.8486 0.834961 32.6074 0.834961C30.4102 0.834961 29.0918 2.28516 29.0918 4.70215L29.4873 38.2764C29.4873 40.2979 28.2129 41.4844 26.3672 41.4844C24.5215 41.4844 23.2031 40.3418 23.2031 38.4082L22.6318 3.69141C22.5879 1.3623 21.2256 0 18.9844 0C16.7432 0 15.3809 1.3623 15.3369 3.69141L14.7217 38.4082C14.7217 40.3418 13.4033 41.4844 11.5576 41.4844C9.75586 41.4844 8.48145 40.2979 8.48145 38.2764L8.83301 4.70215C8.83301 2.28516 7.55859 0.834961 5.36133 0.834961C3.12012 0.834961 1.71387 2.24121 1.58203 4.61426L0.0439453 39.1113C-0.395508 48.9111 2.63672 52.4268 10.0195 55.6787C11.7773 56.4697 12.6123 57.876 12.5684 59.9414L11.4697 123.354C11.3818 127.881 14.3701 130.518 18.9844 130.518ZM62.4902 82.2217L61.1719 122.827C60.9961 127.881 64.0723 130.518 68.6426 130.518C73.3447 130.518 76.333 128.057 76.333 123.574L76.333 4.08691C76.333 1.31836 74.5312 0 72.4658 0C70.4004 0 69.082 1.14258 67.3682 3.60352C58.2715 16.3477 52.3828 39.8584 52.3828 62.8418L52.3828 65.9619C52.3828 70.0488 53.7891 72.7734 56.6016 74.707L59.7217 76.8604C61.6992 78.2666 62.5781 79.9365 62.4902 82.2217Z" fill="#0a84ff"/>
 </g>
</svg>
