<?xml version="1.0" encoding="UTF-8"?>
<!--Generator: Apple Native CoreSVG 232.5-->
<!DOCTYPE svg
PUBLIC "-//W3C//DTD SVG 1.1//EN"
       "http://www.w3.org/Graphics/SVG/1.1/DTD/svg11.dtd">
<svg version="1.1" xmlns="http://www.w3.org/2000/svg" xmlns:xlink="http://www.w3.org/1999/xlink" width="110.972" height="118.257">
 <g>
  <rect height="118.257" opacity="0" width="110.972" x="0" y="0"/>
  <path d="M0.862047 100.459C-1.9944 111.797 2.6638 118.213 13.6941 118.213L97.2781 118.213C108.308 118.213 113.01 111.797 110.154 100.459L97.4538 49.9219C95.4324 41.748 89.7195 37.1777 81.6775 37.1777L29.2947 37.1777C21.2527 37.1777 15.5837 41.748 13.5183 49.9219ZM8.42064 100.854L20.8132 52.4268C22.1316 47.417 25.0759 44.9561 29.9099 44.9561L81.1062 44.9561C85.9402 44.9561 88.8845 47.417 90.1589 52.4268L102.595 100.854C104.221 107.183 101.936 110.435 96.4431 110.435L14.573 110.435C9.03588 110.435 6.79466 107.183 8.42064 100.854ZM51.6189 42.583L59.3972 42.583L59.3972 27.7295L51.6189 27.7295ZM55.4861 31.5967C64.1433 31.5967 71.3503 24.4775 71.3503 15.8643C71.3503 7.16309 64.0994 0 55.4861 0C46.8728 0 39.6658 7.20703 39.6658 15.8643C39.6658 24.4775 46.8728 31.5967 55.4861 31.5967ZM55.4861 24.7852C50.6081 24.7852 46.5212 20.7422 46.5212 15.8643C46.5212 10.9424 50.5642 6.81152 55.4861 6.81152C60.4079 6.81152 64.4949 10.9424 64.4949 15.8643C64.4949 20.6982 60.4079 24.7852 55.4861 24.7852Z" fill="#0a84ff"/>
 </g>
</svg>
