<?xml version="1.0" encoding="UTF-8"?>
<!--Generator: Apple Native CoreSVG 232.5-->
<!DOCTYPE svg
PUBLIC "-//W3C//DTD SVG 1.1//EN"
       "http://www.w3.org/Graphics/SVG/1.1/DTD/svg11.dtd">
<svg version="1.1" xmlns="http://www.w3.org/2000/svg" xmlns:xlink="http://www.w3.org/1999/xlink" width="108.94" height="135.132">
 <g>
  <rect height="135.132" opacity="0" width="108.94" x="0" y="0"/>
  <path d="M37.1777 108.501C35.2881 108.501 34.0576 107.314 33.9697 105.513L32.168 42.0996C32.124 40.2539 33.3545 39.1113 35.332 39.1113C37.0898 39.1113 38.4082 40.21 38.4521 42.0557L40.3418 105.469C40.3857 107.271 39.1113 108.501 37.1777 108.501ZM54.4922 108.501C52.6025 108.501 51.2402 107.271 51.2402 105.469L51.2402 42.0996C51.2402 40.2979 52.6025 39.1113 54.4922 39.1113C56.3818 39.1113 57.7441 40.2979 57.7441 42.0996L57.7441 105.469C57.7441 107.271 56.3818 108.501 54.4922 108.501ZM71.7627 108.501C69.8291 108.501 68.5986 107.271 68.6426 105.513L70.4883 42.0996C70.5322 40.2539 71.8506 39.1113 73.6523 39.1113C75.5859 39.1113 76.8164 40.2979 76.7725 42.1436L74.9707 105.513C74.8828 107.358 73.6523 108.501 71.7627 108.501ZM30.0146 25.1367L37.7051 25.1367L37.7051 13.0518C37.7051 9.53613 40.1221 7.25098 43.9014 7.25098L64.9512 7.25098C68.7305 7.25098 71.1475 9.53613 71.1475 13.0518L71.1475 25.1367L78.8379 25.1367L78.8379 12.6123C78.8379 4.79004 73.7842 0 65.3906 0L43.4619 0C35.1123 0 30.0146 4.79004 30.0146 12.6123ZM3.64746 28.96L105.293 28.96C107.314 28.96 108.94 27.29 108.94 25.3125C108.94 23.291 107.314 21.6211 105.293 21.6211L3.64746 21.6211C1.71387 21.6211 0 23.335 0 25.3125C0 27.334 1.71387 28.96 3.64746 28.96ZM28.6963 125.508L80.332 125.508C87.8906 125.508 93.208 120.366 93.6035 112.808L97.7783 27.8174L11.2061 27.8174L15.3809 112.852C15.7764 120.41 21.0059 125.508 28.6963 125.508Z" fill="#ff453a"/>
 </g>
</svg>
